<?xml version="1.0" encoding="UTF-8" standalone="no"?>
<!DOCTYPE svg PUBLIC "-//W3C//DTD SVG 1.1//EN"
 "http://www.w3.org/Graphics/SVG/1.1/DTD/svg11.dtd">
<!-- Generated by graphviz version 2.40.1 (20161225.0304)
 -->
<!-- Title: dependencies Pages: 1 -->
<svg width="7097pt" height="284pt"
 viewBox="0.00 0.00 7097.00 284.00" xmlns="http://www.w3.org/2000/svg" xmlns:xlink="http://www.w3.org/1999/xlink">
<g id="graph0" class="graph" transform="scale(1 1) rotate(0) translate(4 280)">
<title>dependencies</title>
<polygon fill="#ffffff" stroke="transparent" points="-4,4 -4,-280 7093,-280 7093,4 -4,4"/>
<text text-anchor="start" x="3523.5091" y="-42.4" font-family="sans-serif" font-weight="bold" font-size="14.00" fill="#000000">Legend</text>
<polygon fill="#ffffb3" stroke="transparent" points="3310.5,-10 3310.5,-30 3330.5,-30 3330.5,-10 3310.5,-10"/>
<text text-anchor="start" x="3334.129" y="-15.4" font-family="sans-serif" font-size="14.00" fill="#000000"> &#160;Declarations</text>
<polygon fill="#8dd3c7" stroke="transparent" points="3423.5,-10 3423.5,-30 3443.5,-30 3443.5,-10 3423.5,-10"/>
<text text-anchor="start" x="3447.2251" y="-15.4" font-family="sans-serif" font-size="14.00" fill="#000000"> &#160;Module</text>
<polygon fill="#80b1d3" stroke="transparent" points="3509.5,-10 3509.5,-30 3529.5,-30 3529.5,-10 3509.5,-10"/>
<text text-anchor="start" x="3533.2812" y="-15.4" font-family="sans-serif" font-size="14.00" fill="#000000"> &#160;Bootstrap</text>
<polygon fill="#fdb462" stroke="transparent" points="3606.5,-10 3606.5,-30 3626.5,-30 3626.5,-10 3606.5,-10"/>
<text text-anchor="start" x="3630.1732" y="-15.4" font-family="sans-serif" font-size="14.00" fill="#000000"> &#160;Providers</text>
<polygon fill="#fb8072" stroke="transparent" points="3702.5,-10 3702.5,-30 3722.5,-30 3722.5,-10 3702.5,-10"/>
<text text-anchor="start" x="3726.2258" y="-15.4" font-family="sans-serif" font-size="14.00" fill="#000000"> &#160;Exports</text>
<g id="clust1" class="cluster">
<title>cluster_AppModule</title>
<polygon fill="none" stroke="#000000" stroke-dasharray="1,5" points="8,-70 8,-268 7081,-268 7081,-70 8,-70"/>
</g>
<g id="clust2" class="cluster">
<title>cluster_AppModule_declarations</title>
<polygon fill="none" stroke="#000000" points="1058,-78 1058,-130 7073,-130 7073,-78 1058,-78"/>
</g>
<g id="clust38" class="cluster">
<title>cluster_AppModule_imports</title>
<polygon fill="none" stroke="#000000" points="800,-78 800,-130 1050,-130 1050,-78 800,-78"/>
</g>
<g id="clust40" class="cluster">
<title>cluster_AppModule_bootstrap</title>
<polygon fill="none" stroke="#000000" points="3352,-208 3352,-260 3476,-260 3476,-208 3352,-208"/>
</g>
<g id="clust41" class="cluster">
<title>cluster_AppModule_providers</title>
<polygon fill="none" stroke="#000000" points="16,-78 16,-130 792,-130 792,-78 16,-78"/>
</g>
<!-- AppComponent -->
<g id="node1" class="node">
<title>AppComponent</title>
<polygon fill="#ffffb3" stroke="#000000" points="7064.9399,-122 6959.0601,-122 6959.0601,-86 7064.9399,-86 7064.9399,-122"/>
<text text-anchor="middle" x="7012" y="-99.8" font-family="Times,serif" font-size="14.00" fill="#000000">AppComponent</text>
</g>
<!-- AppModule -->
<g id="node36" class="node">
<title>AppModule</title>
<polygon fill="#8dd3c7" stroke="#000000" points="3455.6571,-187 3452.6571,-191 3431.6571,-191 3428.6571,-187 3372.3429,-187 3372.3429,-151 3455.6571,-151 3455.6571,-187"/>
<text text-anchor="middle" x="3414" y="-164.8" font-family="Times,serif" font-size="14.00" fill="#000000">AppModule</text>
</g>
<!-- AppComponent&#45;&gt;AppModule -->
<g id="edge1" class="edge">
<title>AppComponent&#45;&gt;AppModule</title>
<path fill="none" stroke="#000000" d="M7012,-122.1985C7012,-146.3563 7012,-186 7012,-186 7012,-186 3465.9654,-186 3465.9654,-186"/>
<polygon fill="#000000" stroke="#000000" points="3465.9654,-182.5001 3455.9654,-186 3465.9653,-189.5001 3465.9654,-182.5001"/>
</g>
<!-- AsideNavbarComponent -->
<g id="node2" class="node">
<title>AsideNavbarComponent</title>
<polygon fill="#ffffb3" stroke="#000000" points="6941.6853,-122 6786.3147,-122 6786.3147,-86 6941.6853,-86 6941.6853,-122"/>
<text text-anchor="middle" x="6864" y="-99.8" font-family="Times,serif" font-size="14.00" fill="#000000">AsideNavbarComponent</text>
</g>
<!-- AsideNavbarComponent&#45;&gt;AppModule -->
<g id="edge2" class="edge">
<title>AsideNavbarComponent&#45;&gt;AppModule</title>
<path fill="none" stroke="#000000" d="M6864,-122.1532C6864,-145.7566 6864,-184 6864,-184 6864,-184 3465.7602,-184 3465.7602,-184"/>
<polygon fill="#000000" stroke="#000000" points="3465.7602,-180.5001 3455.7602,-184 3465.7601,-187.5001 3465.7602,-180.5001"/>
</g>
<!-- BranchAddComponent -->
<g id="node3" class="node">
<title>BranchAddComponent</title>
<polygon fill="#ffffb3" stroke="#000000" points="6767.8655,-122 6622.1345,-122 6622.1345,-86 6767.8655,-86 6767.8655,-122"/>
<text text-anchor="middle" x="6695" y="-99.8" font-family="Times,serif" font-size="14.00" fill="#000000">BranchAddComponent</text>
</g>
<!-- BranchAddComponent&#45;&gt;AppModule -->
<g id="edge3" class="edge">
<title>BranchAddComponent&#45;&gt;AppModule</title>
<path fill="none" stroke="#000000" d="M6695,-122.0908C6695,-145.1328 6695,-182 6695,-182 6695,-182 3465.7824,-182 3465.7824,-182"/>
<polygon fill="#000000" stroke="#000000" points="3465.7825,-178.5001 3455.7824,-182 3465.7824,-185.5001 3465.7825,-178.5001"/>
</g>
<!-- BranchComponent -->
<g id="node4" class="node">
<title>BranchComponent</title>
<polygon fill="#ffffb3" stroke="#000000" points="6603.759,-122 6482.241,-122 6482.241,-86 6603.759,-86 6603.759,-122"/>
<text text-anchor="middle" x="6543" y="-99.8" font-family="Times,serif" font-size="14.00" fill="#000000">BranchComponent</text>
</g>
<!-- BranchComponent&#45;&gt;AppModule -->
<g id="edge4" class="edge">
<title>BranchComponent&#45;&gt;AppModule</title>
<path fill="none" stroke="#000000" d="M6543,-122.2479C6543,-145.0179 6543,-181 6543,-181 6543,-181 3465.8664,-181 3465.8664,-181"/>
<polygon fill="#000000" stroke="#000000" points="3465.8664,-177.5001 3455.8664,-181 3465.8664,-184.5001 3465.8664,-177.5001"/>
</g>
<!-- BranchDepartFormationComponent -->
<g id="node5" class="node">
<title>BranchDepartFormationComponent</title>
<polygon fill="#ffffb3" stroke="#000000" points="6464.1755,-122 6245.8245,-122 6245.8245,-86 6464.1755,-86 6464.1755,-122"/>
<text text-anchor="middle" x="6355" y="-99.8" font-family="Times,serif" font-size="14.00" fill="#000000">BranchDepartFormationComponent</text>
</g>
<!-- BranchDepartFormationComponent&#45;&gt;AppModule -->
<g id="edge5" class="edge">
<title>BranchDepartFormationComponent&#45;&gt;AppModule</title>
<path fill="none" stroke="#000000" d="M6355,-122.1554C6355,-144.3519 6355,-179 6355,-179 6355,-179 3465.857,-179 3465.857,-179"/>
<polygon fill="#000000" stroke="#000000" points="3465.857,-175.5001 3455.857,-179 3465.8569,-182.5001 3465.857,-175.5001"/>
</g>
<!-- BranchListComponent -->
<g id="node6" class="node">
<title>BranchListComponent</title>
<polygon fill="#ffffb3" stroke="#000000" points="6227.5379,-122 6084.4621,-122 6084.4621,-86 6227.5379,-86 6227.5379,-122"/>
<text text-anchor="middle" x="6156" y="-99.8" font-family="Times,serif" font-size="14.00" fill="#000000">BranchListComponent</text>
</g>
<!-- BranchListComponent&#45;&gt;AppModule -->
<g id="edge6" class="edge">
<title>BranchListComponent&#45;&gt;AppModule</title>
<path fill="none" stroke="#000000" d="M6156,-122.0449C6156,-143.6623 6156,-177 6156,-177 6156,-177 3465.7008,-177 3465.7008,-177"/>
<polygon fill="#000000" stroke="#000000" points="3465.7008,-173.5001 3455.7008,-177 3465.7008,-180.5001 3465.7008,-173.5001"/>
</g>
<!-- CamelCasePipe -->
<g id="node7" class="node">
<title>CamelCasePipe</title>
<polygon fill="#ffffb3" stroke="#000000" points="6066.1458,-122 5961.8542,-122 5961.8542,-86 6066.1458,-86 6066.1458,-122"/>
<text text-anchor="middle" x="6014" y="-99.8" font-family="Times,serif" font-size="14.00" fill="#000000">CamelCasePipe</text>
</g>
<!-- CamelCasePipe&#45;&gt;AppModule -->
<g id="edge7" class="edge">
<title>CamelCasePipe&#45;&gt;AppModule</title>
<path fill="none" stroke="#000000" d="M6014,-122.2843C6014,-143.3211 6014,-175 6014,-175 6014,-175 3465.8929,-175 3465.8929,-175"/>
<polygon fill="#000000" stroke="#000000" points="3465.8929,-171.5001 3455.8929,-175 3465.8928,-178.5001 3465.8929,-171.5001"/>
</g>
<!-- CompanyAddComponent -->
<g id="node8" class="node">
<title>CompanyAddComponent</title>
<polygon fill="#ffffb3" stroke="#000000" points="5943.8808,-122 5784.1192,-122 5784.1192,-86 5943.8808,-86 5943.8808,-122"/>
<text text-anchor="middle" x="5864" y="-99.8" font-family="Times,serif" font-size="14.00" fill="#000000">CompanyAddComponent</text>
</g>
<!-- CompanyAddComponent&#45;&gt;AppModule -->
<g id="edge8" class="edge">
<title>CompanyAddComponent&#45;&gt;AppModule</title>
<path fill="none" stroke="#000000" d="M5864,-122.0267C5864,-142.7672 5864,-174 5864,-174 5864,-174 3465.7522,-174 3465.7522,-174"/>
<polygon fill="#000000" stroke="#000000" points="3465.7523,-170.5001 3455.7522,-174 3465.7522,-177.5001 3465.7523,-170.5001"/>
</g>
<!-- CompanyComponent -->
<g id="node9" class="node">
<title>CompanyComponent</title>
<polygon fill="#ffffb3" stroke="#000000" points="5765.7744,-122 5630.2256,-122 5630.2256,-86 5765.7744,-86 5765.7744,-122"/>
<text text-anchor="middle" x="5698" y="-99.8" font-family="Times,serif" font-size="14.00" fill="#000000">CompanyComponent</text>
</g>
<!-- CompanyComponent&#45;&gt;AppModule -->
<g id="edge9" class="edge">
<title>CompanyComponent&#45;&gt;AppModule</title>
<path fill="none" stroke="#000000" d="M5698,-122.2228C5698,-142.3652 5698,-172 5698,-172 5698,-172 3466.0871,-172 3466.0871,-172"/>
<polygon fill="#000000" stroke="#000000" points="3466.0872,-168.5001 3456.0871,-172 3466.0871,-175.5001 3466.0872,-168.5001"/>
</g>
<!-- CompanyListComponent -->
<g id="node10" class="node">
<title>CompanyListComponent</title>
<polygon fill="#ffffb3" stroke="#000000" points="5611.5532,-122 5454.4468,-122 5454.4468,-86 5611.5532,-86 5611.5532,-122"/>
<text text-anchor="middle" x="5533" y="-99.8" font-family="Times,serif" font-size="14.00" fill="#000000">CompanyListComponent</text>
</g>
<!-- CompanyListComponent&#45;&gt;AppModule -->
<g id="edge10" class="edge">
<title>CompanyListComponent&#45;&gt;AppModule</title>
<path fill="none" stroke="#000000" d="M5533,-122.0348C5533,-141.5762 5533,-170 5533,-170 5533,-170 3465.8515,-170 3465.8515,-170"/>
<polygon fill="#000000" stroke="#000000" points="3465.8515,-166.5001 3455.8515,-170 3465.8515,-173.5001 3465.8515,-166.5001"/>
</g>
<!-- CompanyListDropdownComponent -->
<g id="node11" class="node">
<title>CompanyListDropdownComponent</title>
<polygon fill="#ffffb3" stroke="#000000" points="5436.9268,-122 5219.0732,-122 5219.0732,-86 5436.9268,-86 5436.9268,-122"/>
<text text-anchor="middle" x="5328" y="-99.8" font-family="Times,serif" font-size="14.00" fill="#000000">CompanyListDropdownComponent</text>
</g>
<!-- CompanyListDropdownComponent&#45;&gt;AppModule -->
<g id="edge11" class="edge">
<title>CompanyListDropdownComponent&#45;&gt;AppModule</title>
<path fill="none" stroke="#000000" d="M5328,-122.1061C5328,-141.3391 5328,-169 5328,-169 5328,-169 3465.7566,-169 3465.7566,-169"/>
<polygon fill="#000000" stroke="#000000" points="3465.7567,-165.5001 3455.7566,-169 3465.7566,-172.5001 3465.7567,-165.5001"/>
</g>
<!-- DashboardComponent -->
<g id="node12" class="node">
<title>DashboardComponent</title>
<polygon fill="#ffffb3" stroke="#000000" points="5200.9734,-122 5059.0266,-122 5059.0266,-86 5200.9734,-86 5200.9734,-122"/>
<text text-anchor="middle" x="5130" y="-99.8" font-family="Times,serif" font-size="14.00" fill="#000000">DashboardComponent</text>
</g>
<!-- DashboardComponent&#45;&gt;AppModule -->
<g id="edge12" class="edge">
<title>DashboardComponent&#45;&gt;AppModule</title>
<path fill="none" stroke="#000000" d="M5130,-122.2222C5130,-140.8285 5130,-167 5130,-167 5130,-167 3465.9921,-167 3465.9921,-167"/>
<polygon fill="#000000" stroke="#000000" points="3465.9921,-163.5001 3455.9921,-167 3465.992,-170.5001 3465.9921,-163.5001"/>
</g>
<!-- DepartmentAddComponent -->
<g id="node13" class="node">
<title>DepartmentAddComponent</title>
<polygon fill="#ffffb3" stroke="#000000" points="5040.5225,-122 4869.4775,-122 4869.4775,-86 5040.5225,-86 5040.5225,-122"/>
<text text-anchor="middle" x="4955" y="-99.8" font-family="Times,serif" font-size="14.00" fill="#000000">DepartmentAddComponent</text>
</g>
<!-- DepartmentAddComponent&#45;&gt;AppModule -->
<g id="edge13" class="edge">
<title>DepartmentAddComponent&#45;&gt;AppModule</title>
<path fill="none" stroke="#000000" d="M4955,-122.302C4955,-140.2699 4955,-165 4955,-165 4955,-165 3466.0172,-165 3466.0172,-165"/>
<polygon fill="#000000" stroke="#000000" points="3466.0173,-161.5001 3456.0172,-165 3466.0172,-168.5001 3466.0173,-161.5001"/>
</g>
<!-- DepartmentAssignToBranchComponent -->
<g id="node14" class="node">
<title>DepartmentAssignToBranchComponent</title>
<polygon fill="#ffffb3" stroke="#000000" points="4851.2808,-122 4608.7192,-122 4608.7192,-86 4851.2808,-86 4851.2808,-122"/>
<text text-anchor="middle" x="4730" y="-99.8" font-family="Times,serif" font-size="14.00" fill="#000000">DepartmentAssignToBranchComponent</text>
</g>
<!-- DepartmentAssignToBranchComponent&#45;&gt;AppModule -->
<g id="edge14" class="edge">
<title>DepartmentAssignToBranchComponent&#45;&gt;AppModule</title>
<path fill="none" stroke="#000000" d="M4730,-122.0225C4730,-139.3734 4730,-163 4730,-163 4730,-163 3465.9263,-163 3465.9263,-163"/>
<polygon fill="#000000" stroke="#000000" points="3465.9263,-159.5001 3455.9263,-163 3465.9262,-166.5001 3465.9263,-159.5001"/>
</g>
<!-- DepartmentComponent -->
<g id="node15" class="node">
<title>DepartmentComponent</title>
<polygon fill="#ffffb3" stroke="#000000" points="4590.9158,-122 4443.0842,-122 4443.0842,-86 4590.9158,-86 4590.9158,-122"/>
<text text-anchor="middle" x="4517" y="-99.8" font-family="Times,serif" font-size="14.00" fill="#000000">DepartmentComponent</text>
</g>
<!-- DepartmentComponent&#45;&gt;AppModule -->
<g id="edge15" class="edge">
<title>DepartmentComponent&#45;&gt;AppModule</title>
<path fill="none" stroke="#000000" d="M4517,-122.0336C4517,-139.0597 4517,-162 4517,-162 4517,-162 3465.892,-162 3465.892,-162"/>
<polygon fill="#000000" stroke="#000000" points="3465.8921,-158.5001 3455.892,-162 3465.892,-165.5001 3465.8921,-158.5001"/>
</g>
<!-- DepartmentListComponent -->
<g id="node16" class="node">
<title>DepartmentListComponent</title>
<polygon fill="#ffffb3" stroke="#000000" points="4425.6937,-122 4256.3063,-122 4256.3063,-86 4425.6937,-86 4425.6937,-122"/>
<text text-anchor="middle" x="4341" y="-99.8" font-family="Times,serif" font-size="14.00" fill="#000000">DepartmentListComponent</text>
</g>
<!-- DepartmentListComponent&#45;&gt;AppModule -->
<g id="edge16" class="edge">
<title>DepartmentListComponent&#45;&gt;AppModule</title>
<path fill="none" stroke="#000000" d="M4341,-122.027C4341,-138.3976 4341,-160 4341,-160 4341,-160 3465.9356,-160 3465.9356,-160"/>
<polygon fill="#000000" stroke="#000000" points="3465.9357,-156.5001 3455.9356,-160 3465.9356,-163.5001 3465.9357,-156.5001"/>
</g>
<!-- DropzoneDirective -->
<g id="node17" class="node">
<title>DropzoneDirective</title>
<polygon fill="#ffffb3" stroke="#000000" points="4238.7795,-122 4115.2205,-122 4115.2205,-86 4238.7795,-86 4238.7795,-122"/>
<text text-anchor="middle" x="4177" y="-99.8" font-family="Times,serif" font-size="14.00" fill="#000000">DropzoneDirective</text>
</g>
<!-- DropzoneDirective&#45;&gt;AppModule -->
<g id="edge17" class="edge">
<title>DropzoneDirective&#45;&gt;AppModule</title>
<path fill="none" stroke="#000000" d="M4177,-122.2819C4177,-137.9478 4177,-158 4177,-158 4177,-158 3465.8361,-158 3465.8361,-158"/>
<polygon fill="#000000" stroke="#000000" points="3465.8362,-154.5001 3455.8361,-158 3465.8361,-161.5001 3465.8362,-154.5001"/>
</g>
<!-- EmployeeAddComponent -->
<g id="node18" class="node">
<title>EmployeeAddComponent</title>
<polygon fill="#ffffb3" stroke="#000000" points="4097.2021,-122 3934.7979,-122 3934.7979,-86 4097.2021,-86 4097.2021,-122"/>
<text text-anchor="middle" x="4016" y="-99.8" font-family="Times,serif" font-size="14.00" fill="#000000">EmployeeAddComponent</text>
</g>
<!-- EmployeeAddComponent&#45;&gt;AppModule -->
<g id="edge18" class="edge">
<title>EmployeeAddComponent&#45;&gt;AppModule</title>
<path fill="none" stroke="#000000" d="M4016,-122.2396C4016,-137.5706 4016,-157 4016,-157 4016,-157 3465.8535,-157 3465.8535,-157"/>
<polygon fill="#000000" stroke="#000000" points="3465.8536,-153.5001 3455.8535,-157 3465.8535,-160.5001 3465.8536,-153.5001"/>
</g>
<!-- EmployeeComponent -->
<g id="node19" class="node">
<title>EmployeeComponent</title>
<polygon fill="#ffffb3" stroke="#000000" points="3917.0954,-122 3778.9046,-122 3778.9046,-86 3917.0954,-86 3917.0954,-122"/>
<text text-anchor="middle" x="3848" y="-99.8" font-family="Times,serif" font-size="14.00" fill="#000000">EmployeeComponent</text>
</g>
<!-- EmployeeComponent&#45;&gt;AppModule -->
<g id="edge19" class="edge">
<title>EmployeeComponent&#45;&gt;AppModule</title>
<path fill="none" stroke="#000000" d="M3848,-122.1243C3848,-136.7832 3848,-155 3848,-155 3848,-155 3466.0081,-155 3466.0081,-155"/>
<polygon fill="#000000" stroke="#000000" points="3466.0081,-151.5001 3456.0081,-155 3466.0081,-158.5001 3466.0081,-151.5001"/>
</g>
<!-- EmployeeListComponent -->
<g id="node20" class="node">
<title>EmployeeListComponent</title>
<polygon fill="#ffffb3" stroke="#000000" points="3760.8738,-122 3601.1262,-122 3601.1262,-86 3760.8738,-86 3760.8738,-122"/>
<text text-anchor="middle" x="3681" y="-99.8" font-family="Times,serif" font-size="14.00" fill="#000000">EmployeeListComponent</text>
</g>
<!-- EmployeeListComponent&#45;&gt;AppModule -->
<g id="edge20" class="edge">
<title>EmployeeListComponent&#45;&gt;AppModule</title>
<path fill="none" stroke="#000000" d="M3681,-122.2458C3681,-136.1772 3681,-153 3681,-153 3681,-153 3465.7188,-153 3465.7188,-153"/>
<polygon fill="#000000" stroke="#000000" points="3465.7188,-149.5001 3455.7188,-153 3465.7187,-156.5001 3465.7188,-149.5001"/>
</g>
<!-- FieldErrorDisplayComponent -->
<g id="node21" class="node">
<title>FieldErrorDisplayComponent</title>
<polygon fill="#ffffb3" stroke="#000000" points="3582.6923,-122 3399.3077,-122 3399.3077,-86 3582.6923,-86 3582.6923,-122"/>
<text text-anchor="middle" x="3491" y="-99.8" font-family="Times,serif" font-size="14.00" fill="#000000">FieldErrorDisplayComponent</text>
</g>
<!-- FieldErrorDisplayComponent&#45;&gt;AppModule -->
<g id="edge21" class="edge">
<title>FieldErrorDisplayComponent&#45;&gt;AppModule</title>
<path fill="none" stroke="#000000" d="M3427.6161,-122.1061C3427.6161,-122.1061 3427.6161,-140.991 3427.6161,-140.991"/>
<polygon fill="#000000" stroke="#000000" points="3424.1161,-140.9909 3427.6161,-150.991 3431.1161,-140.991 3424.1161,-140.9909"/>
</g>
<!-- FileSizePipe -->
<g id="node22" class="node">
<title>FileSizePipe</title>
<polygon fill="#ffffb3" stroke="#000000" points="3381.2689,-122 3294.7311,-122 3294.7311,-86 3381.2689,-86 3381.2689,-122"/>
<text text-anchor="middle" x="3338" y="-99.8" font-family="Times,serif" font-size="14.00" fill="#000000">FileSizePipe</text>
</g>
<!-- FileSizePipe&#45;&gt;AppModule -->
<g id="edge22" class="edge">
<title>FileSizePipe&#45;&gt;AppModule</title>
<path fill="none" stroke="#000000" d="M3376.7781,-122.1061C3376.7781,-122.1061 3376.7781,-140.991 3376.7781,-140.991"/>
<polygon fill="#000000" stroke="#000000" points="3373.2781,-140.9909 3376.7781,-150.991 3380.2781,-140.991 3373.2781,-140.9909"/>
</g>
<!-- FilterBranchPipe -->
<g id="node23" class="node">
<title>FilterBranchPipe</title>
<polygon fill="#ffffb3" stroke="#000000" points="3276.6444,-122 3165.3556,-122 3165.3556,-86 3276.6444,-86 3276.6444,-122"/>
<text text-anchor="middle" x="3221" y="-99.8" font-family="Times,serif" font-size="14.00" fill="#000000">FilterBranchPipe</text>
</g>
<!-- FilterBranchPipe&#45;&gt;AppModule -->
<g id="edge23" class="edge">
<title>FilterBranchPipe&#45;&gt;AppModule</title>
<path fill="none" stroke="#000000" d="M3221,-122.2458C3221,-136.1772 3221,-153 3221,-153 3221,-153 3362.1219,-153 3362.1219,-153"/>
<polygon fill="#000000" stroke="#000000" points="3362.1219,-156.5001 3372.1219,-153 3362.1218,-149.5001 3362.1219,-156.5001"/>
</g>
<!-- FooterNavbarComponent -->
<g id="node24" class="node">
<title>FooterNavbarComponent</title>
<polygon fill="#ffffb3" stroke="#000000" points="3147.5772,-122 2988.4228,-122 2988.4228,-86 3147.5772,-86 3147.5772,-122"/>
<text text-anchor="middle" x="3068" y="-99.8" font-family="Times,serif" font-size="14.00" fill="#000000">FooterNavbarComponent</text>
</g>
<!-- FooterNavbarComponent&#45;&gt;AppModule -->
<g id="edge24" class="edge">
<title>FooterNavbarComponent&#45;&gt;AppModule</title>
<path fill="none" stroke="#000000" d="M3068,-122.1243C3068,-136.7832 3068,-155 3068,-155 3068,-155 3362.2643,-155 3362.2643,-155"/>
<polygon fill="#000000" stroke="#000000" points="3362.2644,-158.5001 3372.2643,-155 3362.2643,-151.5001 3362.2644,-158.5001"/>
</g>
<!-- PageNotFoundComponent -->
<g id="node25" class="node">
<title>PageNotFoundComponent</title>
<polygon fill="#ffffb3" stroke="#000000" points="2970.8243,-122 2805.1757,-122 2805.1757,-86 2970.8243,-86 2970.8243,-122"/>
<text text-anchor="middle" x="2888" y="-99.8" font-family="Times,serif" font-size="14.00" fill="#000000">PageNotFoundComponent</text>
</g>
<!-- PageNotFoundComponent&#45;&gt;AppModule -->
<g id="edge25" class="edge">
<title>PageNotFoundComponent&#45;&gt;AppModule</title>
<path fill="none" stroke="#000000" d="M2888,-122.2396C2888,-137.5706 2888,-157 2888,-157 2888,-157 3362.286,-157 3362.286,-157"/>
<polygon fill="#000000" stroke="#000000" points="3362.286,-160.5001 3372.286,-157 3362.286,-153.5001 3362.286,-160.5001"/>
</g>
<!-- SettingsNavbarComponent -->
<g id="node26" class="node">
<title>SettingsNavbarComponent</title>
<polygon fill="#ffffb3" stroke="#000000" points="2787.6428,-122 2620.3572,-122 2620.3572,-86 2787.6428,-86 2787.6428,-122"/>
<text text-anchor="middle" x="2704" y="-99.8" font-family="Times,serif" font-size="14.00" fill="#000000">SettingsNavbarComponent</text>
</g>
<!-- SettingsNavbarComponent&#45;&gt;AppModule -->
<g id="edge26" class="edge">
<title>SettingsNavbarComponent&#45;&gt;AppModule</title>
<path fill="none" stroke="#000000" d="M2704,-122.2819C2704,-137.9478 2704,-158 2704,-158 2704,-158 3362.237,-158 3362.237,-158"/>
<polygon fill="#000000" stroke="#000000" points="3362.237,-161.5001 3372.237,-158 3362.2369,-154.5001 3362.237,-161.5001"/>
</g>
<!-- SubscriptionAddComponent -->
<g id="node27" class="node">
<title>SubscriptionAddComponent</title>
<polygon fill="#ffffb3" stroke="#000000" points="2602.2133,-122 2425.7867,-122 2425.7867,-86 2602.2133,-86 2602.2133,-122"/>
<text text-anchor="middle" x="2514" y="-99.8" font-family="Times,serif" font-size="14.00" fill="#000000">SubscriptionAddComponent</text>
</g>
<!-- SubscriptionAddComponent&#45;&gt;AppModule -->
<g id="edge27" class="edge">
<title>SubscriptionAddComponent&#45;&gt;AppModule</title>
<path fill="none" stroke="#000000" d="M2514,-122.027C2514,-138.3976 2514,-160 2514,-160 2514,-160 3362.0977,-160 3362.0977,-160"/>
<polygon fill="#000000" stroke="#000000" points="3362.0977,-163.5001 3372.0977,-160 3362.0976,-156.5001 3362.0977,-163.5001"/>
</g>
<!-- SubscriptionComponent -->
<g id="node28" class="node">
<title>SubscriptionComponent</title>
<polygon fill="#ffffb3" stroke="#000000" points="2408.1066,-122 2255.8934,-122 2255.8934,-86 2408.1066,-86 2408.1066,-122"/>
<text text-anchor="middle" x="2332" y="-99.8" font-family="Times,serif" font-size="14.00" fill="#000000">SubscriptionComponent</text>
</g>
<!-- SubscriptionComponent&#45;&gt;AppModule -->
<g id="edge28" class="edge">
<title>SubscriptionComponent&#45;&gt;AppModule</title>
<path fill="none" stroke="#000000" d="M2332,-122.0336C2332,-139.0597 2332,-162 2332,-162 2332,-162 3362.2473,-162 3362.2473,-162"/>
<polygon fill="#000000" stroke="#000000" points="3362.2473,-165.5001 3372.2473,-162 3362.2473,-158.5001 3362.2473,-165.5001"/>
</g>
<!-- SubscriptionListComponent -->
<g id="node29" class="node">
<title>SubscriptionListComponent</title>
<polygon fill="#ffffb3" stroke="#000000" points="2237.885,-122 2064.115,-122 2064.115,-86 2237.885,-86 2237.885,-122"/>
<text text-anchor="middle" x="2151" y="-99.8" font-family="Times,serif" font-size="14.00" fill="#000000">SubscriptionListComponent</text>
</g>
<!-- SubscriptionListComponent&#45;&gt;AppModule -->
<g id="edge29" class="edge">
<title>SubscriptionListComponent&#45;&gt;AppModule</title>
<path fill="none" stroke="#000000" d="M2151,-122.0225C2151,-139.3734 2151,-163 2151,-163 2151,-163 3362.3375,-163 3362.3375,-163"/>
<polygon fill="#000000" stroke="#000000" points="3362.3375,-166.5001 3372.3375,-163 3362.3374,-159.5001 3362.3375,-166.5001"/>
</g>
<!-- SubscriptionPlanComponent -->
<g id="node30" class="node">
<title>SubscriptionPlanComponent</title>
<polygon fill="#ffffb3" stroke="#000000" points="2046.4944,-122 1869.5056,-122 1869.5056,-86 2046.4944,-86 2046.4944,-122"/>
<text text-anchor="middle" x="1958" y="-99.8" font-family="Times,serif" font-size="14.00" fill="#000000">SubscriptionPlanComponent</text>
</g>
<!-- SubscriptionPlanComponent&#45;&gt;AppModule -->
<g id="edge30" class="edge">
<title>SubscriptionPlanComponent&#45;&gt;AppModule</title>
<path fill="none" stroke="#000000" d="M1958,-122.302C1958,-140.2699 1958,-165 1958,-165 1958,-165 3361.995,-165 3361.995,-165"/>
<polygon fill="#000000" stroke="#000000" points="3361.995,-168.5001 3371.995,-165 3361.9949,-161.5001 3361.995,-168.5001"/>
</g>
<!-- SubscriptionPlanListComponent -->
<g id="node31" class="node">
<title>SubscriptionPlanListComponent</title>
<polygon fill="#ffffb3" stroke="#000000" points="1851.2729,-122 1652.7271,-122 1652.7271,-86 1851.2729,-86 1851.2729,-122"/>
<text text-anchor="middle" x="1752" y="-99.8" font-family="Times,serif" font-size="14.00" fill="#000000">SubscriptionPlanListComponent</text>
</g>
<!-- SubscriptionPlanListComponent&#45;&gt;AppModule -->
<g id="edge31" class="edge">
<title>SubscriptionPlanListComponent&#45;&gt;AppModule</title>
<path fill="none" stroke="#000000" d="M1752,-122.2222C1752,-140.8285 1752,-167 1752,-167 1752,-167 3362.0854,-167 3362.0854,-167"/>
<polygon fill="#000000" stroke="#000000" points="3362.0854,-170.5001 3372.0854,-167 3362.0854,-163.5001 3362.0854,-170.5001"/>
</g>
<!-- TopNavbarComponent -->
<g id="node32" class="node">
<title>TopNavbarComponent</title>
<polygon fill="#ffffb3" stroke="#000000" points="1634.5814,-122 1489.4186,-122 1489.4186,-86 1634.5814,-86 1634.5814,-122"/>
<text text-anchor="middle" x="1562" y="-99.8" font-family="Times,serif" font-size="14.00" fill="#000000">TopNavbarComponent</text>
</g>
<!-- TopNavbarComponent&#45;&gt;AppModule -->
<g id="edge32" class="edge">
<title>TopNavbarComponent&#45;&gt;AppModule</title>
<path fill="none" stroke="#000000" d="M1562,-122.1061C1562,-141.3391 1562,-169 1562,-169 1562,-169 3362.2813,-169 3362.2813,-169"/>
<polygon fill="#000000" stroke="#000000" points="3362.2813,-172.5001 3372.2813,-169 3362.2813,-165.5001 3362.2813,-172.5001"/>
</g>
<!-- UserAddComponent -->
<g id="node33" class="node">
<title>UserAddComponent</title>
<polygon fill="#ffffb3" stroke="#000000" points="1471.8655,-122 1340.1345,-122 1340.1345,-86 1471.8655,-86 1471.8655,-122"/>
<text text-anchor="middle" x="1406" y="-99.8" font-family="Times,serif" font-size="14.00" fill="#000000">UserAddComponent</text>
</g>
<!-- UserAddComponent&#45;&gt;AppModule -->
<g id="edge33" class="edge">
<title>UserAddComponent&#45;&gt;AppModule</title>
<path fill="none" stroke="#000000" d="M1406,-122.0348C1406,-141.5762 1406,-170 1406,-170 1406,-170 3362.0601,-170 3362.0601,-170"/>
<polygon fill="#000000" stroke="#000000" points="3362.0601,-173.5001 3372.0601,-170 3362.06,-166.5001 3362.0601,-173.5001"/>
</g>
<!-- UserComponent -->
<g id="node34" class="node">
<title>UserComponent</title>
<polygon fill="#ffffb3" stroke="#000000" points="1321.7591,-122 1214.2409,-122 1214.2409,-86 1321.7591,-86 1321.7591,-122"/>
<text text-anchor="middle" x="1268" y="-99.8" font-family="Times,serif" font-size="14.00" fill="#000000">UserComponent</text>
</g>
<!-- UserComponent&#45;&gt;AppModule -->
<g id="edge34" class="edge">
<title>UserComponent&#45;&gt;AppModule</title>
<path fill="none" stroke="#000000" d="M1268,-122.2228C1268,-142.3652 1268,-172 1268,-172 1268,-172 3362.0951,-172 3362.0951,-172"/>
<polygon fill="#000000" stroke="#000000" points="3362.0951,-175.5001 3372.0951,-172 3362.095,-168.5001 3362.0951,-175.5001"/>
</g>
<!-- UserListComponent -->
<g id="node35" class="node">
<title>UserListComponent</title>
<polygon fill="#ffffb3" stroke="#000000" points="1195.538,-122 1066.462,-122 1066.462,-86 1195.538,-86 1195.538,-122"/>
<text text-anchor="middle" x="1131" y="-99.8" font-family="Times,serif" font-size="14.00" fill="#000000">UserListComponent</text>
</g>
<!-- UserListComponent&#45;&gt;AppModule -->
<g id="edge35" class="edge">
<title>UserListComponent&#45;&gt;AppModule</title>
<path fill="none" stroke="#000000" d="M1131,-122.0267C1131,-142.7672 1131,-174 1131,-174 1131,-174 3361.9313,-174 3361.9313,-174"/>
<polygon fill="#000000" stroke="#000000" points="3361.9313,-177.5001 3371.9313,-174 3361.9313,-170.5001 3361.9313,-177.5001"/>
</g>
<!-- AppComponent  -->
<g id="node39" class="node">
<title>AppComponent </title>
<polygon fill="#80b1d3" stroke="#000000" points="3468.439,-252 3359.561,-252 3359.561,-216 3468.439,-216 3468.439,-252"/>
<text text-anchor="middle" x="3414" y="-229.8" font-family="Times,serif" font-size="14.00" fill="#000000">AppComponent </text>
</g>
<!-- AppModule&#45;&gt;AppComponent  -->
<g id="edge39" class="edge">
<title>AppModule&#45;&gt;AppComponent </title>
<path fill="none" stroke="#000000" stroke-dasharray="1,5" d="M3414,-187.1061C3414,-187.1061 3414,-205.991 3414,-205.991"/>
<polygon fill="#000000" stroke="#000000" points="3410.5001,-205.9909 3414,-215.991 3417.5001,-205.991 3410.5001,-205.9909"/>
</g>
<!-- AppRoutingModule -->
<g id="node37" class="node">
<title>AppRoutingModule</title>
<polygon fill="#8dd3c7" stroke="#000000" points="1042.2744,-122 1039.2744,-126 1018.2744,-126 1015.2744,-122 913.7256,-122 913.7256,-86 1042.2744,-86 1042.2744,-122"/>
<text text-anchor="middle" x="978" y="-99.8" font-family="Times,serif" font-size="14.00" fill="#000000">AppRoutingModule</text>
</g>
<!-- AppRoutingModule&#45;&gt;AppModule -->
<g id="edge36" class="edge">
<title>AppRoutingModule&#45;&gt;AppModule</title>
<path fill="none" stroke="#000000" d="M956.5376,-122.0449C956.5376,-143.6623 956.5376,-177 956.5376,-177 956.5376,-177 3362.1206,-177 3362.1206,-177"/>
<polygon fill="#000000" stroke="#000000" points="3362.1206,-180.5001 3372.1206,-177 3362.1206,-173.5001 3362.1206,-180.5001"/>
</g>
<!-- AppRoutingModule&#45;&gt;AppModule -->
<g id="edge37" class="edge">
<title>AppRoutingModule&#45;&gt;AppModule</title>
<path fill="none" stroke="#000000" d="M999.4624,-122.2843C999.4624,-143.3211 999.4624,-175 999.4624,-175 999.4624,-175 3362.0912,-175 3362.0912,-175"/>
<polygon fill="#000000" stroke="#000000" points="3362.0912,-178.5001 3372.0912,-175 3362.0911,-171.5001 3362.0912,-178.5001"/>
</g>
<!-- AuthModule -->
<g id="node38" class="node">
<title>AuthModule</title>
<polygon fill="#8dd3c7" stroke="#000000" points="895.5482,-122 892.5482,-126 871.5482,-126 868.5482,-122 808.4518,-122 808.4518,-86 895.5482,-86 895.5482,-122"/>
<text text-anchor="middle" x="852" y="-99.8" font-family="Times,serif" font-size="14.00" fill="#000000">AuthModule</text>
</g>
<!-- AuthModule&#45;&gt;AppModule -->
<g id="edge38" class="edge">
<title>AuthModule&#45;&gt;AppModule</title>
<path fill="none" stroke="#000000" d="M852,-122.1554C852,-144.3519 852,-179 852,-179 852,-179 3362.1959,-179 3362.1959,-179"/>
<polygon fill="#000000" stroke="#000000" points="3362.1959,-182.5001 3372.1959,-179 3362.1958,-175.5001 3362.1959,-182.5001"/>
</g>
<!-- AuthService -->
<g id="node40" class="node">
<title>AuthService</title>
<ellipse fill="#fdb462" stroke="#000000" cx="725" cy="-104" rx="59.1083" ry="18"/>
<text text-anchor="middle" x="725" y="-99.8" font-family="Times,serif" font-size="14.00" fill="#000000">AuthService</text>
</g>
<!-- AuthService&#45;&gt;AppModule -->
<g id="edge40" class="edge">
<title>AuthService&#45;&gt;AppModule</title>
<path fill="none" stroke="#000000" d="M725,-122.2479C725,-145.0179 725,-181 725,-181 725,-181 3362.3019,-181 3362.3019,-181"/>
<polygon fill="#000000" stroke="#000000" points="3362.3019,-184.5001 3372.3019,-181 3362.3019,-177.5001 3362.3019,-184.5001"/>
</g>
<!-- ErrorDisplayService -->
<g id="node41" class="node">
<title>ErrorDisplayService</title>
<ellipse fill="#fdb462" stroke="#000000" cx="557" cy="-104" rx="90.3043" ry="18"/>
<text text-anchor="middle" x="557" y="-99.8" font-family="Times,serif" font-size="14.00" fill="#000000">ErrorDisplayService</text>
</g>
<!-- ErrorDisplayService&#45;&gt;AppModule -->
<g id="edge41" class="edge">
<title>ErrorDisplayService&#45;&gt;AppModule</title>
<path fill="none" stroke="#000000" d="M557,-122.0908C557,-145.1328 557,-182 557,-182 557,-182 3362.2337,-182 3362.2337,-182"/>
<polygon fill="#000000" stroke="#000000" points="3362.2338,-185.5001 3372.2337,-182 3362.2337,-178.5001 3362.2338,-185.5001"/>
</g>
<!-- HttpConfigInterceptor -->
<g id="node42" class="node">
<title>HttpConfigInterceptor</title>
<ellipse fill="#fdb462" stroke="#000000" cx="351" cy="-104" rx="97.2702" ry="18"/>
<text text-anchor="middle" x="351" y="-99.8" font-family="Times,serif" font-size="14.00" fill="#000000">HttpConfigInterceptor</text>
</g>
<!-- HttpConfigInterceptor&#45;&gt;AppModule -->
<g id="edge42" class="edge">
<title>HttpConfigInterceptor&#45;&gt;AppModule</title>
<path fill="none" stroke="#000000" d="M351,-122.1532C351,-145.7566 351,-184 351,-184 351,-184 3362.1552,-184 3362.1552,-184"/>
<polygon fill="#000000" stroke="#000000" points="3362.1552,-187.5001 3372.1552,-184 3362.1551,-180.5001 3362.1552,-187.5001"/>
</g>
<!-- UnauthorizedInterceptor -->
<g id="node43" class="node">
<title>UnauthorizedInterceptor</title>
<ellipse fill="#fdb462" stroke="#000000" cx="130" cy="-104" rx="105.8996" ry="18"/>
<text text-anchor="middle" x="130" y="-99.8" font-family="Times,serif" font-size="14.00" fill="#000000">UnauthorizedInterceptor</text>
</g>
<!-- UnauthorizedInterceptor&#45;&gt;AppModule -->
<g id="edge43" class="edge">
<title>UnauthorizedInterceptor&#45;&gt;AppModule</title>
<path fill="none" stroke="#000000" d="M130,-122.1985C130,-146.3563 130,-186 130,-186 130,-186 3362.1794,-186 3362.1794,-186"/>
<polygon fill="#000000" stroke="#000000" points="3362.1794,-189.5001 3372.1794,-186 3362.1793,-182.5001 3362.1794,-189.5001"/>
</g>
</g>
</svg>
