<?xml version="1.0" encoding="UTF-8" standalone="no"?>
<!DOCTYPE svg PUBLIC "-//W3C//DTD SVG 1.1//EN"
 "http://www.w3.org/Graphics/SVG/1.1/DTD/svg11.dtd">
<!-- Generated by graphviz version 2.40.1 (20161225.0304)
 -->
<!-- Title: dependencies Pages: 1 -->
<svg width="6699pt" height="352pt"
 viewBox="0.00 0.00 6699.00 352.00" xmlns="http://www.w3.org/2000/svg" xmlns:xlink="http://www.w3.org/1999/xlink">
<g id="graph0" class="graph" transform="scale(1 1) rotate(0) translate(4 348)">
<title>dependencies</title>
<polygon fill="#ffffff" stroke="transparent" points="-4,4 -4,-348 6695,-348 6695,4 -4,4"/>
<text text-anchor="start" x="3324.5091" y="-42.4" font-family="sans-serif" font-weight="bold" font-size="14.00" fill="#000000">Legend</text>
<polygon fill="#ffffb3" stroke="transparent" points="3111.5,-10 3111.5,-30 3131.5,-30 3131.5,-10 3111.5,-10"/>
<text text-anchor="start" x="3135.129" y="-15.4" font-family="sans-serif" font-size="14.00" fill="#000000"> &#160;Declarations</text>
<polygon fill="#8dd3c7" stroke="transparent" points="3224.5,-10 3224.5,-30 3244.5,-30 3244.5,-10 3224.5,-10"/>
<text text-anchor="start" x="3248.2251" y="-15.4" font-family="sans-serif" font-size="14.00" fill="#000000"> &#160;Module</text>
<polygon fill="#80b1d3" stroke="transparent" points="3310.5,-10 3310.5,-30 3330.5,-30 3330.5,-10 3310.5,-10"/>
<text text-anchor="start" x="3334.2812" y="-15.4" font-family="sans-serif" font-size="14.00" fill="#000000"> &#160;Bootstrap</text>
<polygon fill="#fdb462" stroke="transparent" points="3407.5,-10 3407.5,-30 3427.5,-30 3427.5,-10 3407.5,-10"/>
<text text-anchor="start" x="3431.1732" y="-15.4" font-family="sans-serif" font-size="14.00" fill="#000000"> &#160;Providers</text>
<polygon fill="#fb8072" stroke="transparent" points="3503.5,-10 3503.5,-30 3523.5,-30 3523.5,-10 3503.5,-10"/>
<text text-anchor="start" x="3527.2258" y="-15.4" font-family="sans-serif" font-size="14.00" fill="#000000"> &#160;Exports</text>
<g id="clust1" class="cluster">
<title>cluster_AppModule</title>
<polygon fill="none" stroke="#000000" stroke-dasharray="1,5" points="8,-70 8,-336 6369,-336 6369,-70 8,-70"/>
</g>
<g id="clust2" class="cluster">
<title>cluster_AppModule_declarations</title>
<polygon fill="none" stroke="#000000" points="346,-146 346,-198 6361,-198 6361,-146 346,-146"/>
</g>
<g id="clust38" class="cluster">
<title>cluster_AppModule_imports</title>
<polygon fill="none" stroke="#000000" points="88,-146 88,-198 338,-198 338,-146 88,-146"/>
</g>
<g id="clust40" class="cluster">
<title>cluster_AppModule_bootstrap</title>
<polygon fill="none" stroke="#000000" points="2640,-276 2640,-328 2764,-328 2764,-276 2640,-276"/>
</g>
<g id="clust41" class="cluster">
<title>cluster_AppModule_providers</title>
<polygon fill="none" stroke="#000000" points="16,-78 16,-130 791,-130 791,-78 16,-78"/>
</g>
<g id="clust48" class="cluster">
<title>cluster_AuthModule</title>
<polygon fill="none" stroke="#000000" stroke-dasharray="1,5" points="6377,-70 6377,-138 6683,-138 6683,-70 6377,-70"/>
</g>
<g id="clust49" class="cluster">
<title>cluster_AuthModule_declarations</title>
<polygon fill="none" stroke="#000000" points="6541,-78 6541,-130 6675,-130 6675,-78 6541,-78"/>
</g>
<g id="clust51" class="cluster">
<title>cluster_AuthModule_imports</title>
<polygon fill="none" stroke="#000000" points="6385,-78 6385,-130 6533,-130 6533,-78 6385,-78"/>
</g>
<!-- AppComponent -->
<g id="node1" class="node">
<title>AppComponent</title>
<polygon fill="#ffffb3" stroke="#000000" points="6352.9399,-190 6247.0601,-190 6247.0601,-154 6352.9399,-154 6352.9399,-190"/>
<text text-anchor="middle" x="6300" y="-167.8" font-family="Times,serif" font-size="14.00" fill="#000000">AppComponent</text>
</g>
<!-- AppModule -->
<g id="node36" class="node">
<title>AppModule</title>
<polygon fill="#8dd3c7" stroke="#000000" points="2743.6571,-255 2740.6571,-259 2719.6571,-259 2716.6571,-255 2660.3429,-255 2660.3429,-219 2743.6571,-219 2743.6571,-255"/>
<text text-anchor="middle" x="2702" y="-232.8" font-family="Times,serif" font-size="14.00" fill="#000000">AppModule</text>
</g>
<!-- AppComponent&#45;&gt;AppModule -->
<g id="edge1" class="edge">
<title>AppComponent&#45;&gt;AppModule</title>
<path fill="none" stroke="#000000" d="M6300,-190.1985C6300,-214.3563 6300,-254 6300,-254 6300,-254 2753.9654,-254 2753.9654,-254"/>
<polygon fill="#000000" stroke="#000000" points="2753.9654,-250.5001 2743.9654,-254 2753.9653,-257.5001 2753.9654,-250.5001"/>
</g>
<!-- AsideNavbarComponent -->
<g id="node2" class="node">
<title>AsideNavbarComponent</title>
<polygon fill="#ffffb3" stroke="#000000" points="6229.6853,-190 6074.3147,-190 6074.3147,-154 6229.6853,-154 6229.6853,-190"/>
<text text-anchor="middle" x="6152" y="-167.8" font-family="Times,serif" font-size="14.00" fill="#000000">AsideNavbarComponent</text>
</g>
<!-- AsideNavbarComponent&#45;&gt;AppModule -->
<g id="edge2" class="edge">
<title>AsideNavbarComponent&#45;&gt;AppModule</title>
<path fill="none" stroke="#000000" d="M6152,-190.1532C6152,-213.7566 6152,-252 6152,-252 6152,-252 2753.7602,-252 2753.7602,-252"/>
<polygon fill="#000000" stroke="#000000" points="2753.7602,-248.5001 2743.7602,-252 2753.7601,-255.5001 2753.7602,-248.5001"/>
</g>
<!-- BranchAddComponent -->
<g id="node3" class="node">
<title>BranchAddComponent</title>
<polygon fill="#ffffb3" stroke="#000000" points="6055.8655,-190 5910.1345,-190 5910.1345,-154 6055.8655,-154 6055.8655,-190"/>
<text text-anchor="middle" x="5983" y="-167.8" font-family="Times,serif" font-size="14.00" fill="#000000">BranchAddComponent</text>
</g>
<!-- BranchAddComponent&#45;&gt;AppModule -->
<g id="edge3" class="edge">
<title>BranchAddComponent&#45;&gt;AppModule</title>
<path fill="none" stroke="#000000" d="M5983,-190.0908C5983,-213.1328 5983,-250 5983,-250 5983,-250 2753.7824,-250 2753.7824,-250"/>
<polygon fill="#000000" stroke="#000000" points="2753.7825,-246.5001 2743.7824,-250 2753.7824,-253.5001 2753.7825,-246.5001"/>
</g>
<!-- BranchComponent -->
<g id="node4" class="node">
<title>BranchComponent</title>
<polygon fill="#ffffb3" stroke="#000000" points="5891.759,-190 5770.241,-190 5770.241,-154 5891.759,-154 5891.759,-190"/>
<text text-anchor="middle" x="5831" y="-167.8" font-family="Times,serif" font-size="14.00" fill="#000000">BranchComponent</text>
</g>
<!-- BranchComponent&#45;&gt;AppModule -->
<g id="edge4" class="edge">
<title>BranchComponent&#45;&gt;AppModule</title>
<path fill="none" stroke="#000000" d="M5831,-190.2479C5831,-213.0179 5831,-249 5831,-249 5831,-249 2753.8664,-249 2753.8664,-249"/>
<polygon fill="#000000" stroke="#000000" points="2753.8664,-245.5001 2743.8664,-249 2753.8664,-252.5001 2753.8664,-245.5001"/>
</g>
<!-- BranchDepartFormationComponent -->
<g id="node5" class="node">
<title>BranchDepartFormationComponent</title>
<polygon fill="#ffffb3" stroke="#000000" points="5752.1755,-190 5533.8245,-190 5533.8245,-154 5752.1755,-154 5752.1755,-190"/>
<text text-anchor="middle" x="5643" y="-167.8" font-family="Times,serif" font-size="14.00" fill="#000000">BranchDepartFormationComponent</text>
</g>
<!-- BranchDepartFormationComponent&#45;&gt;AppModule -->
<g id="edge5" class="edge">
<title>BranchDepartFormationComponent&#45;&gt;AppModule</title>
<path fill="none" stroke="#000000" d="M5643,-190.1554C5643,-212.3519 5643,-247 5643,-247 5643,-247 2753.857,-247 2753.857,-247"/>
<polygon fill="#000000" stroke="#000000" points="2753.857,-243.5001 2743.857,-247 2753.8569,-250.5001 2753.857,-243.5001"/>
</g>
<!-- BranchListComponent -->
<g id="node6" class="node">
<title>BranchListComponent</title>
<polygon fill="#ffffb3" stroke="#000000" points="5515.5379,-190 5372.4621,-190 5372.4621,-154 5515.5379,-154 5515.5379,-190"/>
<text text-anchor="middle" x="5444" y="-167.8" font-family="Times,serif" font-size="14.00" fill="#000000">BranchListComponent</text>
</g>
<!-- BranchListComponent&#45;&gt;AppModule -->
<g id="edge6" class="edge">
<title>BranchListComponent&#45;&gt;AppModule</title>
<path fill="none" stroke="#000000" d="M5444,-190.0449C5444,-211.6623 5444,-245 5444,-245 5444,-245 2753.7008,-245 2753.7008,-245"/>
<polygon fill="#000000" stroke="#000000" points="2753.7008,-241.5001 2743.7008,-245 2753.7008,-248.5001 2753.7008,-241.5001"/>
</g>
<!-- CamelCasePipe -->
<g id="node7" class="node">
<title>CamelCasePipe</title>
<polygon fill="#ffffb3" stroke="#000000" points="5354.1458,-190 5249.8542,-190 5249.8542,-154 5354.1458,-154 5354.1458,-190"/>
<text text-anchor="middle" x="5302" y="-167.8" font-family="Times,serif" font-size="14.00" fill="#000000">CamelCasePipe</text>
</g>
<!-- CamelCasePipe&#45;&gt;AppModule -->
<g id="edge7" class="edge">
<title>CamelCasePipe&#45;&gt;AppModule</title>
<path fill="none" stroke="#000000" d="M5302,-190.2843C5302,-211.3211 5302,-243 5302,-243 5302,-243 2753.8929,-243 2753.8929,-243"/>
<polygon fill="#000000" stroke="#000000" points="2753.8929,-239.5001 2743.8929,-243 2753.8928,-246.5001 2753.8929,-239.5001"/>
</g>
<!-- CompanyAddComponent -->
<g id="node8" class="node">
<title>CompanyAddComponent</title>
<polygon fill="#ffffb3" stroke="#000000" points="5231.8808,-190 5072.1192,-190 5072.1192,-154 5231.8808,-154 5231.8808,-190"/>
<text text-anchor="middle" x="5152" y="-167.8" font-family="Times,serif" font-size="14.00" fill="#000000">CompanyAddComponent</text>
</g>
<!-- CompanyAddComponent&#45;&gt;AppModule -->
<g id="edge8" class="edge">
<title>CompanyAddComponent&#45;&gt;AppModule</title>
<path fill="none" stroke="#000000" d="M5152,-190.0267C5152,-210.7672 5152,-242 5152,-242 5152,-242 2753.7522,-242 2753.7522,-242"/>
<polygon fill="#000000" stroke="#000000" points="2753.7523,-238.5001 2743.7522,-242 2753.7522,-245.5001 2753.7523,-238.5001"/>
</g>
<!-- CompanyComponent -->
<g id="node9" class="node">
<title>CompanyComponent</title>
<polygon fill="#ffffb3" stroke="#000000" points="5053.7744,-190 4918.2256,-190 4918.2256,-154 5053.7744,-154 5053.7744,-190"/>
<text text-anchor="middle" x="4986" y="-167.8" font-family="Times,serif" font-size="14.00" fill="#000000">CompanyComponent</text>
</g>
<!-- CompanyComponent&#45;&gt;AppModule -->
<g id="edge9" class="edge">
<title>CompanyComponent&#45;&gt;AppModule</title>
<path fill="none" stroke="#000000" d="M4986,-190.2228C4986,-210.3652 4986,-240 4986,-240 4986,-240 2754.0871,-240 2754.0871,-240"/>
<polygon fill="#000000" stroke="#000000" points="2754.0872,-236.5001 2744.0871,-240 2754.0871,-243.5001 2754.0872,-236.5001"/>
</g>
<!-- CompanyListComponent -->
<g id="node10" class="node">
<title>CompanyListComponent</title>
<polygon fill="#ffffb3" stroke="#000000" points="4899.5532,-190 4742.4468,-190 4742.4468,-154 4899.5532,-154 4899.5532,-190"/>
<text text-anchor="middle" x="4821" y="-167.8" font-family="Times,serif" font-size="14.00" fill="#000000">CompanyListComponent</text>
</g>
<!-- CompanyListComponent&#45;&gt;AppModule -->
<g id="edge10" class="edge">
<title>CompanyListComponent&#45;&gt;AppModule</title>
<path fill="none" stroke="#000000" d="M4821,-190.0348C4821,-209.5762 4821,-238 4821,-238 4821,-238 2753.8515,-238 2753.8515,-238"/>
<polygon fill="#000000" stroke="#000000" points="2753.8515,-234.5001 2743.8515,-238 2753.8515,-241.5001 2753.8515,-234.5001"/>
</g>
<!-- CompanyListDropdownComponent -->
<g id="node11" class="node">
<title>CompanyListDropdownComponent</title>
<polygon fill="#ffffb3" stroke="#000000" points="4724.9268,-190 4507.0732,-190 4507.0732,-154 4724.9268,-154 4724.9268,-190"/>
<text text-anchor="middle" x="4616" y="-167.8" font-family="Times,serif" font-size="14.00" fill="#000000">CompanyListDropdownComponent</text>
</g>
<!-- CompanyListDropdownComponent&#45;&gt;AppModule -->
<g id="edge11" class="edge">
<title>CompanyListDropdownComponent&#45;&gt;AppModule</title>
<path fill="none" stroke="#000000" d="M4616,-190.1061C4616,-209.3391 4616,-237 4616,-237 4616,-237 2753.7566,-237 2753.7566,-237"/>
<polygon fill="#000000" stroke="#000000" points="2753.7567,-233.5001 2743.7566,-237 2753.7566,-240.5001 2753.7567,-233.5001"/>
</g>
<!-- DashboardComponent -->
<g id="node12" class="node">
<title>DashboardComponent</title>
<polygon fill="#ffffb3" stroke="#000000" points="4488.9734,-190 4347.0266,-190 4347.0266,-154 4488.9734,-154 4488.9734,-190"/>
<text text-anchor="middle" x="4418" y="-167.8" font-family="Times,serif" font-size="14.00" fill="#000000">DashboardComponent</text>
</g>
<!-- DashboardComponent&#45;&gt;AppModule -->
<g id="edge12" class="edge">
<title>DashboardComponent&#45;&gt;AppModule</title>
<path fill="none" stroke="#000000" d="M4418,-190.2222C4418,-208.8285 4418,-235 4418,-235 4418,-235 2753.9921,-235 2753.9921,-235"/>
<polygon fill="#000000" stroke="#000000" points="2753.9921,-231.5001 2743.9921,-235 2753.992,-238.5001 2753.9921,-231.5001"/>
</g>
<!-- DepartmentAddComponent -->
<g id="node13" class="node">
<title>DepartmentAddComponent</title>
<polygon fill="#ffffb3" stroke="#000000" points="4328.5225,-190 4157.4775,-190 4157.4775,-154 4328.5225,-154 4328.5225,-190"/>
<text text-anchor="middle" x="4243" y="-167.8" font-family="Times,serif" font-size="14.00" fill="#000000">DepartmentAddComponent</text>
</g>
<!-- DepartmentAddComponent&#45;&gt;AppModule -->
<g id="edge13" class="edge">
<title>DepartmentAddComponent&#45;&gt;AppModule</title>
<path fill="none" stroke="#000000" d="M4243,-190.302C4243,-208.2699 4243,-233 4243,-233 4243,-233 2754.0172,-233 2754.0172,-233"/>
<polygon fill="#000000" stroke="#000000" points="2754.0173,-229.5001 2744.0172,-233 2754.0172,-236.5001 2754.0173,-229.5001"/>
</g>
<!-- DepartmentAssignToBranchComponent -->
<g id="node14" class="node">
<title>DepartmentAssignToBranchComponent</title>
<polygon fill="#ffffb3" stroke="#000000" points="4139.2808,-190 3896.7192,-190 3896.7192,-154 4139.2808,-154 4139.2808,-190"/>
<text text-anchor="middle" x="4018" y="-167.8" font-family="Times,serif" font-size="14.00" fill="#000000">DepartmentAssignToBranchComponent</text>
</g>
<!-- DepartmentAssignToBranchComponent&#45;&gt;AppModule -->
<g id="edge14" class="edge">
<title>DepartmentAssignToBranchComponent&#45;&gt;AppModule</title>
<path fill="none" stroke="#000000" d="M4018,-190.0225C4018,-207.3734 4018,-231 4018,-231 4018,-231 2753.9263,-231 2753.9263,-231"/>
<polygon fill="#000000" stroke="#000000" points="2753.9263,-227.5001 2743.9263,-231 2753.9262,-234.5001 2753.9263,-227.5001"/>
</g>
<!-- DepartmentComponent -->
<g id="node15" class="node">
<title>DepartmentComponent</title>
<polygon fill="#ffffb3" stroke="#000000" points="3878.9158,-190 3731.0842,-190 3731.0842,-154 3878.9158,-154 3878.9158,-190"/>
<text text-anchor="middle" x="3805" y="-167.8" font-family="Times,serif" font-size="14.00" fill="#000000">DepartmentComponent</text>
</g>
<!-- DepartmentComponent&#45;&gt;AppModule -->
<g id="edge15" class="edge">
<title>DepartmentComponent&#45;&gt;AppModule</title>
<path fill="none" stroke="#000000" d="M3805,-190.0336C3805,-207.0597 3805,-230 3805,-230 3805,-230 2753.892,-230 2753.892,-230"/>
<polygon fill="#000000" stroke="#000000" points="2753.8921,-226.5001 2743.892,-230 2753.892,-233.5001 2753.8921,-226.5001"/>
</g>
<!-- DepartmentListComponent -->
<g id="node16" class="node">
<title>DepartmentListComponent</title>
<polygon fill="#ffffb3" stroke="#000000" points="3713.6937,-190 3544.3063,-190 3544.3063,-154 3713.6937,-154 3713.6937,-190"/>
<text text-anchor="middle" x="3629" y="-167.8" font-family="Times,serif" font-size="14.00" fill="#000000">DepartmentListComponent</text>
</g>
<!-- DepartmentListComponent&#45;&gt;AppModule -->
<g id="edge16" class="edge">
<title>DepartmentListComponent&#45;&gt;AppModule</title>
<path fill="none" stroke="#000000" d="M3629,-190.027C3629,-206.3976 3629,-228 3629,-228 3629,-228 2753.9356,-228 2753.9356,-228"/>
<polygon fill="#000000" stroke="#000000" points="2753.9357,-224.5001 2743.9356,-228 2753.9356,-231.5001 2753.9357,-224.5001"/>
</g>
<!-- DropzoneDirective -->
<g id="node17" class="node">
<title>DropzoneDirective</title>
<polygon fill="#ffffb3" stroke="#000000" points="3526.7795,-190 3403.2205,-190 3403.2205,-154 3526.7795,-154 3526.7795,-190"/>
<text text-anchor="middle" x="3465" y="-167.8" font-family="Times,serif" font-size="14.00" fill="#000000">DropzoneDirective</text>
</g>
<!-- DropzoneDirective&#45;&gt;AppModule -->
<g id="edge17" class="edge">
<title>DropzoneDirective&#45;&gt;AppModule</title>
<path fill="none" stroke="#000000" d="M3465,-190.2819C3465,-205.9478 3465,-226 3465,-226 3465,-226 2753.8361,-226 2753.8361,-226"/>
<polygon fill="#000000" stroke="#000000" points="2753.8362,-222.5001 2743.8361,-226 2753.8361,-229.5001 2753.8362,-222.5001"/>
</g>
<!-- EmployeeAddComponent -->
<g id="node18" class="node">
<title>EmployeeAddComponent</title>
<polygon fill="#ffffb3" stroke="#000000" points="3385.2021,-190 3222.7979,-190 3222.7979,-154 3385.2021,-154 3385.2021,-190"/>
<text text-anchor="middle" x="3304" y="-167.8" font-family="Times,serif" font-size="14.00" fill="#000000">EmployeeAddComponent</text>
</g>
<!-- EmployeeAddComponent&#45;&gt;AppModule -->
<g id="edge18" class="edge">
<title>EmployeeAddComponent&#45;&gt;AppModule</title>
<path fill="none" stroke="#000000" d="M3304,-190.2396C3304,-205.5706 3304,-225 3304,-225 3304,-225 2753.8535,-225 2753.8535,-225"/>
<polygon fill="#000000" stroke="#000000" points="2753.8536,-221.5001 2743.8535,-225 2753.8535,-228.5001 2753.8536,-221.5001"/>
</g>
<!-- EmployeeComponent -->
<g id="node19" class="node">
<title>EmployeeComponent</title>
<polygon fill="#ffffb3" stroke="#000000" points="3205.0954,-190 3066.9046,-190 3066.9046,-154 3205.0954,-154 3205.0954,-190"/>
<text text-anchor="middle" x="3136" y="-167.8" font-family="Times,serif" font-size="14.00" fill="#000000">EmployeeComponent</text>
</g>
<!-- EmployeeComponent&#45;&gt;AppModule -->
<g id="edge19" class="edge">
<title>EmployeeComponent&#45;&gt;AppModule</title>
<path fill="none" stroke="#000000" d="M3136,-190.1243C3136,-204.7832 3136,-223 3136,-223 3136,-223 2754.0081,-223 2754.0081,-223"/>
<polygon fill="#000000" stroke="#000000" points="2754.0081,-219.5001 2744.0081,-223 2754.0081,-226.5001 2754.0081,-219.5001"/>
</g>
<!-- EmployeeListComponent -->
<g id="node20" class="node">
<title>EmployeeListComponent</title>
<polygon fill="#ffffb3" stroke="#000000" points="3048.8738,-190 2889.1262,-190 2889.1262,-154 3048.8738,-154 3048.8738,-190"/>
<text text-anchor="middle" x="2969" y="-167.8" font-family="Times,serif" font-size="14.00" fill="#000000">EmployeeListComponent</text>
</g>
<!-- EmployeeListComponent&#45;&gt;AppModule -->
<g id="edge20" class="edge">
<title>EmployeeListComponent&#45;&gt;AppModule</title>
<path fill="none" stroke="#000000" d="M2969,-190.2458C2969,-204.1772 2969,-221 2969,-221 2969,-221 2753.7188,-221 2753.7188,-221"/>
<polygon fill="#000000" stroke="#000000" points="2753.7188,-217.5001 2743.7188,-221 2753.7187,-224.5001 2753.7188,-217.5001"/>
</g>
<!-- FieldErrorDisplayComponent -->
<g id="node21" class="node">
<title>FieldErrorDisplayComponent</title>
<polygon fill="#ffffb3" stroke="#000000" points="2870.6923,-190 2687.3077,-190 2687.3077,-154 2870.6923,-154 2870.6923,-190"/>
<text text-anchor="middle" x="2779" y="-167.8" font-family="Times,serif" font-size="14.00" fill="#000000">FieldErrorDisplayComponent</text>
</g>
<!-- FieldErrorDisplayComponent&#45;&gt;AppModule -->
<g id="edge21" class="edge">
<title>FieldErrorDisplayComponent&#45;&gt;AppModule</title>
<path fill="none" stroke="#000000" d="M2715.616,-190.1061C2715.616,-190.1061 2715.616,-208.991 2715.616,-208.991"/>
<polygon fill="#000000" stroke="#000000" points="2712.1161,-208.9909 2715.616,-218.991 2719.1161,-208.991 2712.1161,-208.9909"/>
</g>
<!-- FileSizePipe -->
<g id="node22" class="node">
<title>FileSizePipe</title>
<polygon fill="#ffffb3" stroke="#000000" points="2669.2689,-190 2582.7311,-190 2582.7311,-154 2669.2689,-154 2669.2689,-190"/>
<text text-anchor="middle" x="2626" y="-167.8" font-family="Times,serif" font-size="14.00" fill="#000000">FileSizePipe</text>
</g>
<!-- FileSizePipe&#45;&gt;AppModule -->
<g id="edge22" class="edge">
<title>FileSizePipe&#45;&gt;AppModule</title>
<path fill="none" stroke="#000000" d="M2664.7781,-190.1061C2664.7781,-190.1061 2664.7781,-208.991 2664.7781,-208.991"/>
<polygon fill="#000000" stroke="#000000" points="2661.2781,-208.9909 2664.7781,-218.991 2668.2781,-208.991 2661.2781,-208.9909"/>
</g>
<!-- FilterBranchPipe -->
<g id="node23" class="node">
<title>FilterBranchPipe</title>
<polygon fill="#ffffb3" stroke="#000000" points="2564.6444,-190 2453.3556,-190 2453.3556,-154 2564.6444,-154 2564.6444,-190"/>
<text text-anchor="middle" x="2509" y="-167.8" font-family="Times,serif" font-size="14.00" fill="#000000">FilterBranchPipe</text>
</g>
<!-- FilterBranchPipe&#45;&gt;AppModule -->
<g id="edge23" class="edge">
<title>FilterBranchPipe&#45;&gt;AppModule</title>
<path fill="none" stroke="#000000" d="M2509,-190.2458C2509,-204.1772 2509,-221 2509,-221 2509,-221 2650.1219,-221 2650.1219,-221"/>
<polygon fill="#000000" stroke="#000000" points="2650.1219,-224.5001 2660.1219,-221 2650.1218,-217.5001 2650.1219,-224.5001"/>
</g>
<!-- FooterNavbarComponent -->
<g id="node24" class="node">
<title>FooterNavbarComponent</title>
<polygon fill="#ffffb3" stroke="#000000" points="2435.5772,-190 2276.4228,-190 2276.4228,-154 2435.5772,-154 2435.5772,-190"/>
<text text-anchor="middle" x="2356" y="-167.8" font-family="Times,serif" font-size="14.00" fill="#000000">FooterNavbarComponent</text>
</g>
<!-- FooterNavbarComponent&#45;&gt;AppModule -->
<g id="edge24" class="edge">
<title>FooterNavbarComponent&#45;&gt;AppModule</title>
<path fill="none" stroke="#000000" d="M2356,-190.1243C2356,-204.7832 2356,-223 2356,-223 2356,-223 2650.2643,-223 2650.2643,-223"/>
<polygon fill="#000000" stroke="#000000" points="2650.2644,-226.5001 2660.2643,-223 2650.2643,-219.5001 2650.2644,-226.5001"/>
</g>
<!-- PageNotFoundComponent -->
<g id="node25" class="node">
<title>PageNotFoundComponent</title>
<polygon fill="#ffffb3" stroke="#000000" points="2258.8243,-190 2093.1757,-190 2093.1757,-154 2258.8243,-154 2258.8243,-190"/>
<text text-anchor="middle" x="2176" y="-167.8" font-family="Times,serif" font-size="14.00" fill="#000000">PageNotFoundComponent</text>
</g>
<!-- PageNotFoundComponent&#45;&gt;AppModule -->
<g id="edge25" class="edge">
<title>PageNotFoundComponent&#45;&gt;AppModule</title>
<path fill="none" stroke="#000000" d="M2176,-190.2396C2176,-205.5706 2176,-225 2176,-225 2176,-225 2650.286,-225 2650.286,-225"/>
<polygon fill="#000000" stroke="#000000" points="2650.286,-228.5001 2660.286,-225 2650.286,-221.5001 2650.286,-228.5001"/>
</g>
<!-- SettingsNavbarComponent -->
<g id="node26" class="node">
<title>SettingsNavbarComponent</title>
<polygon fill="#ffffb3" stroke="#000000" points="2075.6428,-190 1908.3572,-190 1908.3572,-154 2075.6428,-154 2075.6428,-190"/>
<text text-anchor="middle" x="1992" y="-167.8" font-family="Times,serif" font-size="14.00" fill="#000000">SettingsNavbarComponent</text>
</g>
<!-- SettingsNavbarComponent&#45;&gt;AppModule -->
<g id="edge26" class="edge">
<title>SettingsNavbarComponent&#45;&gt;AppModule</title>
<path fill="none" stroke="#000000" d="M1992,-190.2819C1992,-205.9478 1992,-226 1992,-226 1992,-226 2650.237,-226 2650.237,-226"/>
<polygon fill="#000000" stroke="#000000" points="2650.237,-229.5001 2660.237,-226 2650.2369,-222.5001 2650.237,-229.5001"/>
</g>
<!-- SubscriptionAddComponent -->
<g id="node27" class="node">
<title>SubscriptionAddComponent</title>
<polygon fill="#ffffb3" stroke="#000000" points="1890.2133,-190 1713.7867,-190 1713.7867,-154 1890.2133,-154 1890.2133,-190"/>
<text text-anchor="middle" x="1802" y="-167.8" font-family="Times,serif" font-size="14.00" fill="#000000">SubscriptionAddComponent</text>
</g>
<!-- SubscriptionAddComponent&#45;&gt;AppModule -->
<g id="edge27" class="edge">
<title>SubscriptionAddComponent&#45;&gt;AppModule</title>
<path fill="none" stroke="#000000" d="M1802,-190.027C1802,-206.3976 1802,-228 1802,-228 1802,-228 2650.0977,-228 2650.0977,-228"/>
<polygon fill="#000000" stroke="#000000" points="2650.0977,-231.5001 2660.0977,-228 2650.0976,-224.5001 2650.0977,-231.5001"/>
</g>
<!-- SubscriptionComponent -->
<g id="node28" class="node">
<title>SubscriptionComponent</title>
<polygon fill="#ffffb3" stroke="#000000" points="1696.1066,-190 1543.8934,-190 1543.8934,-154 1696.1066,-154 1696.1066,-190"/>
<text text-anchor="middle" x="1620" y="-167.8" font-family="Times,serif" font-size="14.00" fill="#000000">SubscriptionComponent</text>
</g>
<!-- SubscriptionComponent&#45;&gt;AppModule -->
<g id="edge28" class="edge">
<title>SubscriptionComponent&#45;&gt;AppModule</title>
<path fill="none" stroke="#000000" d="M1620,-190.0336C1620,-207.0597 1620,-230 1620,-230 1620,-230 2650.2473,-230 2650.2473,-230"/>
<polygon fill="#000000" stroke="#000000" points="2650.2473,-233.5001 2660.2473,-230 2650.2473,-226.5001 2650.2473,-233.5001"/>
</g>
<!-- SubscriptionListComponent -->
<g id="node29" class="node">
<title>SubscriptionListComponent</title>
<polygon fill="#ffffb3" stroke="#000000" points="1525.885,-190 1352.115,-190 1352.115,-154 1525.885,-154 1525.885,-190"/>
<text text-anchor="middle" x="1439" y="-167.8" font-family="Times,serif" font-size="14.00" fill="#000000">SubscriptionListComponent</text>
</g>
<!-- SubscriptionListComponent&#45;&gt;AppModule -->
<g id="edge29" class="edge">
<title>SubscriptionListComponent&#45;&gt;AppModule</title>
<path fill="none" stroke="#000000" d="M1439,-190.0225C1439,-207.3734 1439,-231 1439,-231 1439,-231 2650.3375,-231 2650.3375,-231"/>
<polygon fill="#000000" stroke="#000000" points="2650.3375,-234.5001 2660.3375,-231 2650.3374,-227.5001 2650.3375,-234.5001"/>
</g>
<!-- SubscriptionPlanComponent -->
<g id="node30" class="node">
<title>SubscriptionPlanComponent</title>
<polygon fill="#ffffb3" stroke="#000000" points="1334.4944,-190 1157.5056,-190 1157.5056,-154 1334.4944,-154 1334.4944,-190"/>
<text text-anchor="middle" x="1246" y="-167.8" font-family="Times,serif" font-size="14.00" fill="#000000">SubscriptionPlanComponent</text>
</g>
<!-- SubscriptionPlanComponent&#45;&gt;AppModule -->
<g id="edge30" class="edge">
<title>SubscriptionPlanComponent&#45;&gt;AppModule</title>
<path fill="none" stroke="#000000" d="M1246,-190.302C1246,-208.2699 1246,-233 1246,-233 1246,-233 2649.995,-233 2649.995,-233"/>
<polygon fill="#000000" stroke="#000000" points="2649.995,-236.5001 2659.995,-233 2649.9949,-229.5001 2649.995,-236.5001"/>
</g>
<!-- SubscriptionPlanListComponent -->
<g id="node31" class="node">
<title>SubscriptionPlanListComponent</title>
<polygon fill="#ffffb3" stroke="#000000" points="1139.2729,-190 940.7271,-190 940.7271,-154 1139.2729,-154 1139.2729,-190"/>
<text text-anchor="middle" x="1040" y="-167.8" font-family="Times,serif" font-size="14.00" fill="#000000">SubscriptionPlanListComponent</text>
</g>
<!-- SubscriptionPlanListComponent&#45;&gt;AppModule -->
<g id="edge31" class="edge">
<title>SubscriptionPlanListComponent&#45;&gt;AppModule</title>
<path fill="none" stroke="#000000" d="M1040,-190.2222C1040,-208.8285 1040,-235 1040,-235 1040,-235 2650.0854,-235 2650.0854,-235"/>
<polygon fill="#000000" stroke="#000000" points="2650.0854,-238.5001 2660.0854,-235 2650.0854,-231.5001 2650.0854,-238.5001"/>
</g>
<!-- TopNavbarComponent -->
<g id="node32" class="node">
<title>TopNavbarComponent</title>
<polygon fill="#ffffb3" stroke="#000000" points="922.5814,-190 777.4186,-190 777.4186,-154 922.5814,-154 922.5814,-190"/>
<text text-anchor="middle" x="850" y="-167.8" font-family="Times,serif" font-size="14.00" fill="#000000">TopNavbarComponent</text>
</g>
<!-- TopNavbarComponent&#45;&gt;AppModule -->
<g id="edge32" class="edge">
<title>TopNavbarComponent&#45;&gt;AppModule</title>
<path fill="none" stroke="#000000" d="M850,-190.1061C850,-209.3391 850,-237 850,-237 850,-237 2650.2813,-237 2650.2813,-237"/>
<polygon fill="#000000" stroke="#000000" points="2650.2813,-240.5001 2660.2813,-237 2650.2813,-233.5001 2650.2813,-240.5001"/>
</g>
<!-- UserAddComponent -->
<g id="node33" class="node">
<title>UserAddComponent</title>
<polygon fill="#ffffb3" stroke="#000000" points="759.8655,-190 628.1345,-190 628.1345,-154 759.8655,-154 759.8655,-190"/>
<text text-anchor="middle" x="694" y="-167.8" font-family="Times,serif" font-size="14.00" fill="#000000">UserAddComponent</text>
</g>
<!-- UserAddComponent&#45;&gt;AppModule -->
<g id="edge33" class="edge">
<title>UserAddComponent&#45;&gt;AppModule</title>
<path fill="none" stroke="#000000" d="M694,-190.2228C694,-210.3652 694,-240 694,-240 694,-240 2650.0601,-240 2650.0601,-240"/>
<polygon fill="#000000" stroke="#000000" points="2650.0601,-243.5001 2660.0601,-240 2650.06,-236.5001 2650.0601,-243.5001"/>
</g>
<!-- UserComponent -->
<g id="node34" class="node">
<title>UserComponent</title>
<polygon fill="#ffffb3" stroke="#000000" points="609.7591,-190 502.2409,-190 502.2409,-154 609.7591,-154 609.7591,-190"/>
<text text-anchor="middle" x="556" y="-167.8" font-family="Times,serif" font-size="14.00" fill="#000000">UserComponent</text>
</g>
<!-- UserComponent&#45;&gt;AppModule -->
<g id="edge34" class="edge">
<title>UserComponent&#45;&gt;AppModule</title>
<path fill="none" stroke="#000000" d="M556,-190.2843C556,-211.3211 556,-243 556,-243 556,-243 2650.0951,-243 2650.0951,-243"/>
<polygon fill="#000000" stroke="#000000" points="2650.0951,-246.5001 2660.0951,-243 2650.095,-239.5001 2650.0951,-246.5001"/>
</g>
<!-- UserListComponent -->
<g id="node35" class="node">
<title>UserListComponent</title>
<polygon fill="#ffffb3" stroke="#000000" points="483.538,-190 354.462,-190 354.462,-154 483.538,-154 483.538,-190"/>
<text text-anchor="middle" x="419" y="-167.8" font-family="Times,serif" font-size="14.00" fill="#000000">UserListComponent</text>
</g>
<!-- UserListComponent&#45;&gt;AppModule -->
<g id="edge35" class="edge">
<title>UserListComponent&#45;&gt;AppModule</title>
<path fill="none" stroke="#000000" d="M419,-190.0449C419,-211.6623 419,-245 419,-245 419,-245 2649.9313,-245 2649.9313,-245"/>
<polygon fill="#000000" stroke="#000000" points="2649.9313,-248.5001 2659.9313,-245 2649.9313,-241.5001 2649.9313,-248.5001"/>
</g>
<!-- AppComponent  -->
<g id="node39" class="node">
<title>AppComponent </title>
<polygon fill="#80b1d3" stroke="#000000" points="2756.439,-320 2647.561,-320 2647.561,-284 2756.439,-284 2756.439,-320"/>
<text text-anchor="middle" x="2702" y="-297.8" font-family="Times,serif" font-size="14.00" fill="#000000">AppComponent </text>
</g>
<!-- AppModule&#45;&gt;AppComponent  -->
<g id="edge39" class="edge">
<title>AppModule&#45;&gt;AppComponent </title>
<path fill="none" stroke="#000000" stroke-dasharray="1,5" d="M2702,-255.1061C2702,-255.1061 2702,-273.991 2702,-273.991"/>
<polygon fill="#000000" stroke="#000000" points="2698.5001,-273.9909 2702,-283.991 2705.5001,-273.991 2698.5001,-273.9909"/>
</g>
<!-- AppRoutingModule -->
<g id="node37" class="node">
<title>AppRoutingModule</title>
<polygon fill="#8dd3c7" stroke="#000000" points="330.2744,-190 327.2744,-194 306.2744,-194 303.2744,-190 201.7256,-190 201.7256,-154 330.2744,-154 330.2744,-190"/>
<text text-anchor="middle" x="266" y="-167.8" font-family="Times,serif" font-size="14.00" fill="#000000">AppRoutingModule</text>
</g>
<!-- AppRoutingModule&#45;&gt;AppModule -->
<g id="edge36" class="edge">
<title>AppRoutingModule&#45;&gt;AppModule</title>
<path fill="none" stroke="#000000" d="M287.4624,-190.2479C287.4624,-213.0179 287.4624,-249 287.4624,-249 287.4624,-249 2650.0912,-249 2650.0912,-249"/>
<polygon fill="#000000" stroke="#000000" points="2650.0912,-252.5001 2660.0912,-249 2650.0911,-245.5001 2650.0912,-252.5001"/>
</g>
<!-- AppRoutingModule&#45;&gt;AppModule -->
<g id="edge37" class="edge">
<title>AppRoutingModule&#45;&gt;AppModule</title>
<path fill="none" stroke="#000000" d="M244.5376,-190.0908C244.5376,-213.1328 244.5376,-250 244.5376,-250 244.5376,-250 2650.1206,-250 2650.1206,-250"/>
<polygon fill="#000000" stroke="#000000" points="2650.1206,-253.5001 2660.1206,-250 2650.1206,-246.5001 2650.1206,-253.5001"/>
</g>
<!-- AuthModule -->
<g id="node38" class="node">
<title>AuthModule</title>
<polygon fill="#8dd3c7" stroke="#000000" points="183.5482,-190 180.5482,-194 159.5482,-194 156.5482,-190 96.4518,-190 96.4518,-154 183.5482,-154 183.5482,-190"/>
<text text-anchor="middle" x="140" y="-167.8" font-family="Times,serif" font-size="14.00" fill="#000000">AuthModule</text>
</g>
<!-- AuthModule&#45;&gt;AppModule -->
<g id="edge38" class="edge">
<title>AuthModule&#45;&gt;AppModule</title>
<path fill="none" stroke="#000000" d="M140,-190.1985C140,-214.3563 140,-254 140,-254 140,-254 2650.1959,-254 2650.1959,-254"/>
<polygon fill="#000000" stroke="#000000" points="2650.1959,-257.5001 2660.1959,-254 2650.1958,-250.5001 2650.1959,-257.5001"/>
</g>
<!-- AuthService -->
<g id="node40" class="node">
<title>AuthService</title>
<ellipse fill="#fdb462" stroke="#000000" cx="724" cy="-104" rx="59.1083" ry="18"/>
<text text-anchor="middle" x="724" y="-99.8" font-family="Times,serif" font-size="14.00" fill="#000000">AuthService</text>
</g>
<!-- AuthService&#45;&gt;AppModule -->
<g id="edge40" class="edge">
<title>AuthService&#45;&gt;AppModule</title>
<path fill="none" stroke="#000000" d="M768.696,-115.8916C768.696,-148.6864 768.696,-238 768.696,-238 768.696,-238 2650.2752,-238 2650.2752,-238"/>
<polygon fill="#000000" stroke="#000000" points="2650.2752,-241.5001 2660.2752,-238 2650.2751,-234.5001 2650.2752,-241.5001"/>
</g>
<!-- AuthService&#45;&gt;AuthModule -->
<g id="edge46" class="edge">
<title>AuthService&#45;&gt;AuthModule</title>
<path fill="none" stroke="#000000" d="M712.3144,-121.7734C712.3144,-126.3438 712.3144,-130 712.3144,-130 712.3144,-130 118.1133,-130 118.1133,-130 118.1133,-130 118.1133,-143.9445 118.1133,-143.9445"/>
<polygon fill="#000000" stroke="#000000" points="114.6133,-143.9444 118.1133,-153.9445 121.6133,-143.9445 114.6133,-143.9444"/>
</g>
<!-- ErrorDisplayService -->
<g id="node41" class="node">
<title>ErrorDisplayService</title>
<ellipse fill="#fdb462" stroke="#000000" cx="114" cy="-104" rx="90.3043" ry="18"/>
<text text-anchor="middle" x="114" y="-99.8" font-family="Times,serif" font-size="14.00" fill="#000000">ErrorDisplayService</text>
</g>
<!-- ErrorDisplayService&#45;&gt;AppModule -->
<g id="edge41" class="edge">
<title>ErrorDisplayService&#45;&gt;AppModule</title>
<path fill="none" stroke="#000000" d="M192.6932,-113.2581C192.6932,-145.6589 192.6932,-252 192.6932,-252 192.6932,-252 2650.2808,-252 2650.2808,-252"/>
<polygon fill="#000000" stroke="#000000" points="2650.2809,-255.5001 2660.2808,-252 2650.2808,-248.5001 2650.2809,-255.5001"/>
</g>
<!-- HttpConfigInterceptor -->
<g id="node42" class="node">
<title>HttpConfigInterceptor</title>
<ellipse fill="#fdb462" stroke="#000000" cx="320" cy="-104" rx="97.2702" ry="18"/>
<text text-anchor="middle" x="320" y="-99.8" font-family="Times,serif" font-size="14.00" fill="#000000">HttpConfigInterceptor</text>
</g>
<!-- HttpConfigInterceptor&#45;&gt;AppModule -->
<g id="edge42" class="edge">
<title>HttpConfigInterceptor&#45;&gt;AppModule</title>
<path fill="none" stroke="#000000" d="M342.3093,-121.5346C342.3093,-159.7197 342.3093,-247 342.3093,-247 342.3093,-247 2650.2931,-247 2650.2931,-247"/>
<polygon fill="#000000" stroke="#000000" points="2650.2931,-250.5001 2660.2931,-247 2650.2931,-243.5001 2650.2931,-250.5001"/>
</g>
<!-- UnauthorizedInterceptor -->
<g id="node43" class="node">
<title>UnauthorizedInterceptor</title>
<ellipse fill="#fdb462" stroke="#000000" cx="541" cy="-104" rx="105.8996" ry="18"/>
<text text-anchor="middle" x="541" y="-99.8" font-family="Times,serif" font-size="14.00" fill="#000000">UnauthorizedInterceptor</text>
</g>
<!-- UnauthorizedInterceptor&#45;&gt;AppModule -->
<g id="edge43" class="edge">
<title>UnauthorizedInterceptor&#45;&gt;AppModule</title>
<path fill="none" stroke="#000000" d="M618.9734,-116.2466C618.9734,-150.0204 618.9734,-242 618.9734,-242 618.9734,-242 2649.92,-242 2649.92,-242"/>
<polygon fill="#000000" stroke="#000000" points="2649.9201,-245.5001 2659.92,-242 2649.92,-238.5001 2649.9201,-245.5001"/>
</g>
<!-- SigninComponent -->
<g id="node44" class="node">
<title>SigninComponent</title>
<polygon fill="#ffffb3" stroke="#000000" points="6666.8962,-122 6549.1038,-122 6549.1038,-86 6666.8962,-86 6666.8962,-122"/>
<text text-anchor="middle" x="6608" y="-99.8" font-family="Times,serif" font-size="14.00" fill="#000000">SigninComponent</text>
</g>
<!-- SigninComponent&#45;&gt;AuthModule -->
<g id="edge44" class="edge">
<title>SigninComponent&#45;&gt;AuthModule</title>
<path fill="none" stroke="#000000" d="M6608,-122.0555C6608,-133.439 6608,-146 6608,-146 6608,-146 161.8868,-146 161.8868,-146 161.8868,-146 161.8868,-146.7942 161.8868,-146.7942"/>
<polygon fill="#000000" stroke="#000000" points="158.3869,-143.9421 161.8868,-153.9421 165.3869,-143.9422 158.3869,-143.9421"/>
</g>
<!-- AuthRoutingModule -->
<g id="node45" class="node">
<title>AuthRoutingModule</title>
<polygon fill="#8dd3c7" stroke="#000000" points="6525.1652,-122 6522.1652,-126 6501.1652,-126 6498.1652,-122 6392.8348,-122 6392.8348,-86 6525.1652,-86 6525.1652,-122"/>
<text text-anchor="middle" x="6459" y="-99.8" font-family="Times,serif" font-size="14.00" fill="#000000">AuthRoutingModule</text>
</g>
<!-- AuthRoutingModule&#45;&gt;AuthModule -->
<g id="edge45" class="edge">
<title>AuthRoutingModule&#45;&gt;AuthModule</title>
<path fill="none" stroke="#000000" d="M6459,-122.1944C6459,-130.2782 6459,-138 6459,-138 6459,-138 140,-138 140,-138 140,-138 140,-143.8056 140,-143.8056"/>
<polygon fill="#000000" stroke="#000000" points="136.5001,-143.8055 140,-153.8056 143.5001,-143.8056 136.5001,-143.8055"/>
</g>
</g>
</svg>
